<svg id="Слой_1" data-name="Слой 1" xmlns="http://www.w3.org/2000/svg" viewBox="0 0 1000 1000"><defs><style>.cls-1{fill:#e5e5e5;}.cls-2{fill:#fff;}</style></defs><path class="cls-1" d="M270.56,256.14V129c-14.87,2.42-28,10.27-35.73,21.77L15.49,476.93a39.58,39.58,0,0,0,0,45.14L234.83,848.23c7.72,11.5,20.86,19.35,35.73,21.77V742.86L118.85,517.29a31.25,31.25,0,0,1,0-35.58ZM984,476.93,764.61,150.77c-6.55-9.78-17-16.91-29.15-20.32v133.2L882.12,481.71a31.29,31.29,0,0,1,0,35.58L735.46,735.35v133.2c12.13-3.41,22.6-10.54,29.15-20.32L984,522.07A39.58,39.58,0,0,0,984,476.93Z"/><path class="cls-2" d="M820.49,515.91l-18,26.71h-100V867.5H587.3V541.65H422.85V867.5H303.72V542.62H207.06l-17.35-25.8a31.34,31.34,0,0,1,0-35.59l18-26.71h96V129.64H422.85V452.35H587.3V129.64H702.54V454.52h100.6l17.35,25.8A31.34,31.34,0,0,1,820.49,515.91Z"/></svg>